<?xml version="1.0" encoding="UTF-8"?>
<svg id="Layer_1" xmlns="http://www.w3.org/2000/svg" version="1.1" viewBox="0 0 360 112.22">
  <!-- Generator: Adobe Illustrator 29.1.0, SVG Export Plug-In . SVG Version: 2.1.0 Build 142)  -->
  <defs>
    <style>
      .st0 {
        fill: #0a0203;
      }

      .st1 {
        fill: #0054a6;
      }
    </style>
  </defs>
  <g>
    <polygon class="st1" points="195.07 36.56 193.67 42.68 190.19 57.9 188.79 64.02 185.31 79.24 202.43 79.24 205.91 64.02 207.31 57.9 210.79 42.68 212.19 36.56 215.67 21.34 198.55 21.34 195.07 36.56"/>
    <path class="st1" d="M76.23,21.34h-14.07c-1.69,0-3.37,1.37-3.76,3.06l-2.78,12.17-1.4,6.11-3.48,15.23-1.4,6.11-2.78,12.17c-.39,1.69.67,3.06,2.36,3.06h37.31l3.48-15.22h-23.24l1.4-6.11h23.24l3.48-15.23h-23.24l1.4-6.11h23.24l3.48-15.23h-23.24Z"/>
    <path class="st1" d="M285.4,21.34h-14.07c-1.69,0-3.37,1.37-3.76,3.06l-2.78,12.17-1.4,6.11-3.48,15.23-1.4,6.11-2.78,12.17c-.39,1.69.67,3.06,2.36,3.06h37.31l3.48-15.22h-23.24l1.4-6.11h23.24l3.48-15.23h-23.24l1.4-6.11h23.24l3.48-15.23h-23.24Z"/>
    <path class="st1" d="M322.12,64.02l1.4-6.11,3.48-15.23,1.4-6.11,3.48-15.23h-17.13l-3.48,15.23-1.4,6.11-3.48,15.23-1.4,6.11-2.78,12.17c-.39,1.69.67,3.06,2.36,3.06h37.31l3.48-15.22h-23.24Z"/>
    <polygon class="st1" points="169.19 21.34 152.07 21.34 148.58 36.56 160.2 36.56 158.81 42.68 155.32 57.9 153.93 64.02 150.44 79.24 167.57 79.24 171.05 64.02 172.45 57.9 175.93 42.68 177.33 36.56 188.95 36.56 192.43 21.34 175.31 21.34 169.19 21.34"/>
    <path class="st1" d="M259.1,21.34h-34.26c-1.69,0-3.37,1.37-3.76,3.06l-2.78,12.17-1.4,6.11-3.48,15.23-1.4,6.11-3.48,15.22h17.13l3.48-15.22,1.4-6.11,3.48-15.23,1.4-6.11h6.11l-1.4,6.11-3.48,15.23-1.4,6.11-3.48,15.22h17.13l3.48-15.22,1.4-6.11,3.48-15.23,1.4-6.11,2.78-12.17c.39-1.69-.67-3.06-2.36-3.06Z"/>
    <path class="st1" d="M142.9,21.34h-34.25c-1.69,0-3.37,1.37-3.76,3.06l-2.78,12.17-1.4,6.11-3.48,15.23-1.4,6.11-3.48,15.22h17.13l3.48-15.22,1.4-6.11,3.48-15.23,1.4-6.11h6.11l-1.4,6.11-3.48,15.23-1.4,6.11-3.48,15.22h17.13l3.48-15.22,1.4-6.11,3.48-15.23,1.4-6.11,2.78-12.17c.39-1.69-.67-3.06-2.36-3.06Z"/>
    <path class="st1" d="M20.56,0c-1.69,0-3.37,1.37-3.76,3.06l-2.78,12.17-1.4,6.11-2.78,12.17c-.39,1.69.67,3.06,2.36,3.06h20.18l-1.4,6.11-3.48,15.23-1.4,6.11h-6.11l1.4-6.11,3.48-15.23H7.74l-3.48,15.23-1.4,6.11L.08,76.18c-.39,1.69.67,3.05,2.35,3.06h34.26c1.69,0,3.37-1.37,3.76-3.06l2.78-12.17,1.4-6.11,3.48-15.23,1.4-6.11,2.78-12.17c.39-1.69-.67-3.06-2.36-3.06h-20.18l1.4-6.11h325.37l3.48-15.23H20.56Z"/>
  </g>
  <g>
    <path class="st0" d="M0,111.88v-20.58h4.16v20.58H0Z"/>
    <path class="st0" d="M11.6,111.88v-20.58h5.42l6.6,14.46h.54v-14.46h4.16v20.58h-5.36l-6.66-14.71h-.54v14.71h-4.16Z"/>
    <path class="st0" d="M35.74,111.88v-20.58h7.87c1.61,0,2.96.23,4.05.68,1.1.45,1.97,1.11,2.64,1.97.66.86,1.14,1.91,1.43,3.13.29,1.23.44,2.62.44,4.19s-.14,3.02-.41,4.31c-.27,1.29-.73,2.4-1.37,3.35-.64.94-1.51,1.67-2.59,2.18-1.09.51-2.44.77-4.07.77h-7.99ZM39.9,108.39h3.59c.95,0,1.71-.18,2.29-.54s1.03-.87,1.34-1.52c.31-.65.52-1.41.63-2.26.11-.85.17-1.78.17-2.79s-.06-1.84-.18-2.64c-.12-.79-.34-1.48-.65-2.05-.31-.57-.75-1.02-1.33-1.33-.57-.31-1.33-.47-2.28-.47h-3.59v13.59Z"/>
    <path class="st0" d="M66.63,112.22c-1.69,0-3.12-.22-4.29-.66-1.18-.44-2.06-1.18-2.67-2.22-.6-1.03-.9-2.41-.9-4.14v-13.89h4.16v14.04c0,1.19.32,2.04.95,2.56.63.52,1.55.78,2.76.78,1.27,0,2.22-.26,2.86-.78.64-.52.96-1.38.96-2.56v-14.04h4.16v13.83c0,1.73-.31,3.11-.92,4.16-.61,1.04-1.51,1.79-2.68,2.24-1.18.45-2.64.68-4.39.68Z"/>
    <path class="st0" d="M88.54,112.22c-.76,0-1.6-.05-2.5-.14-.9-.09-1.78-.2-2.64-.33-.85-.13-1.58-.25-2.18-.35l.27-3.28c.62.08,1.35.17,2.17.26.82.09,1.64.17,2.46.23.81.06,1.52.09,2.12.09.76,0,1.39-.1,1.87-.3s.84-.51,1.07-.92c.23-.41.35-.94.35-1.58,0-.52-.1-.94-.32-1.25-.21-.31-.59-.56-1.13-.75-.54-.19-1.3-.38-2.26-.56-1.2-.22-2.24-.48-3.09-.78-.85-.3-1.55-.68-2.09-1.13-.54-.45-.94-1.03-1.19-1.73-.25-.7-.38-1.56-.38-2.56,0-1.57.29-2.8.87-3.69.58-.89,1.42-1.53,2.5-1.91,1.08-.38,2.36-.57,3.83-.57.66,0,1.42.03,2.27.1.86.07,1.7.16,2.53.26.83.1,1.54.21,2.12.33l-.18,3.31c-.6-.08-1.3-.16-2.09-.23-.79-.07-1.58-.14-2.35-.2-.77-.06-1.43-.09-1.97-.09-.74,0-1.37.08-1.87.24-.5.16-.87.41-1.12.75-.24.34-.36.77-.36,1.3,0,.6.12,1.06.36,1.39.24.32.65.58,1.22.78s1.36.41,2.37.63c1.19.26,2.2.54,3.03.84.83.3,1.51.66,2.02,1.09.51.42.89.96,1.13,1.63.24.66.36,1.5.36,2.5,0,1.61-.29,2.9-.86,3.87-.57.97-1.4,1.68-2.47,2.11-1.07.43-2.37.65-3.87.65Z"/>
    <path class="st0" d="M106.05,111.88v-17.06h-5.54v-3.53h15.07v3.53h-5.36v17.06h-4.16Z"/>
    <path class="st0" d="M121.45,111.88v-20.58h8.05c1.65,0,3.03.21,4.14.63,1.12.42,1.95,1.12,2.5,2.11.55.98.83,2.32.83,4.01,0,1.49-.27,2.74-.8,3.75-.53,1.02-1.34,1.76-2.43,2.25l3.23,7.83h-4.37l-2.71-6.9h-4.28v6.9h-4.16ZM125.61,101.58h3.98c.76,0,1.38-.15,1.84-.44s.79-.7.99-1.24c.2-.53.3-1.14.3-1.82,0-1.12-.26-1.97-.78-2.53-.52-.56-1.34-.84-2.44-.84h-3.89v6.87Z"/>
    <path class="st0" d="M143.63,111.88v-20.58h4.16v20.58h-4.16Z"/>
    <path class="st0" d="M153.69,111.88l5.24-20.58h7.26l5.21,20.58h-4.16l-1.15-4.16h-7.2l-1.09,4.16h-4.13ZM159.57,104.38h5.94l-2.32-9.7h-1.27l-2.35,9.7Z"/>
    <path class="st0" d="M177.29,111.88v-20.58h4.16v17.06h8.14v3.53h-12.3Z"/>
    <path class="st0" d="M205.62,111.88v-20.58h8.05c1.65,0,3.03.21,4.14.63,1.12.42,1.95,1.12,2.5,2.11s.83,2.32.83,4.01c0,1.49-.27,2.74-.8,3.75-.53,1.02-1.34,1.76-2.43,2.25l3.23,7.83h-4.37l-2.71-6.9h-4.28v6.9h-4.16ZM209.78,101.58h3.98c.76,0,1.38-.15,1.84-.44s.79-.7.99-1.24c.2-.53.3-1.14.3-1.82,0-1.12-.26-1.97-.78-2.53-.52-.56-1.34-.84-2.44-.84h-3.89v6.87Z"/>
    <path class="st0" d="M235.91,112.22c-2.19,0-3.92-.39-5.2-1.16-1.28-.77-2.19-1.94-2.74-3.51-.55-1.57-.83-3.53-.83-5.88s.27-4.35.83-5.94c.55-1.59,1.46-2.78,2.74-3.59,1.28-.8,3.01-1.2,5.2-1.2s3.92.4,5.2,1.2c1.28.8,2.19,2,2.74,3.59.55,1.59.83,3.57.83,5.94s-.28,4.37-.83,5.94c-.55,1.57-1.47,2.73-2.74,3.48-1.28.75-3.01,1.13-5.2,1.13ZM235.91,108.72c1.27,0,2.23-.26,2.88-.77.65-.51,1.09-1.3,1.31-2.35.22-1.05.33-2.37.33-3.93s-.12-2.89-.35-3.96c-.23-1.07-.67-1.89-1.31-2.44-.64-.55-1.6-.83-2.86-.83s-2.19.28-2.85.83c-.65.55-1.1,1.37-1.34,2.44-.24,1.07-.36,2.4-.36,3.96s.12,2.84.35,3.89c.23,1.04.67,1.83,1.33,2.37.65.53,1.61.8,2.88.8Z"/>
    <path class="st0" d="M259.53,112.22c-2.19,0-3.92-.39-5.2-1.16-1.28-.77-2.19-1.94-2.74-3.51-.55-1.57-.83-3.53-.83-5.88s.27-4.35.83-5.94c.55-1.59,1.46-2.78,2.74-3.59,1.28-.8,3.01-1.2,5.2-1.2s3.92.4,5.2,1.2c1.28.8,2.19,2,2.74,3.59.55,1.59.83,3.57.83,5.94s-.28,4.37-.83,5.94c-.55,1.57-1.47,2.73-2.74,3.48-1.28.75-3.01,1.13-5.2,1.13ZM259.53,108.72c1.27,0,2.23-.26,2.88-.77.65-.51,1.09-1.3,1.31-2.35.22-1.05.33-2.37.33-3.93s-.12-2.89-.35-3.96-.67-1.89-1.31-2.44c-.64-.55-1.6-.83-2.86-.83s-2.19.28-2.85.83c-.65.55-1.1,1.37-1.34,2.44-.24,1.07-.36,2.4-.36,3.96s.12,2.84.35,3.89c.23,1.04.67,1.83,1.33,2.37.65.53,1.61.8,2.88.8Z"/>
    <path class="st0" d="M275.05,111.88v-20.58h13.29v3.5h-9.13v6.21h7.47v3.5h-7.47v7.38h-4.16Z"/>
    <path class="st0" d="M294.46,111.88v-20.58h4.16v20.58h-4.16Z"/>
    <path class="st0" d="M306.06,111.88v-20.58h5.42l6.6,14.46h.54v-14.46h4.16v20.58h-5.36l-6.66-14.71h-.54v14.71h-4.16Z"/>
    <path class="st0" d="M338.19,112.18c-1.73,0-3.16-.23-4.28-.68-1.12-.45-2-1.12-2.64-2.02-.63-.89-1.08-2-1.34-3.32s-.39-2.84-.39-4.56c0-1.83.15-3.41.44-4.75s.77-2.44,1.45-3.32c.67-.87,1.56-1.53,2.65-1.96,1.09-.43,2.45-.65,4.05-.65.82,0,1.68.04,2.58.14.89.09,1.75.21,2.56.35.81.14,1.49.28,2.04.42l-.06,3.25c-.56-.1-1.24-.19-2.03-.27-.79-.08-1.6-.15-2.43-.19-.82-.05-1.57-.08-2.23-.08-1.01,0-1.82.13-2.46.39-.63.26-1.12.68-1.45,1.25-.33.57-.56,1.31-.68,2.2-.12.89-.18,1.96-.18,3.21,0,1.59.11,2.91.35,3.96.23,1.06.68,1.83,1.36,2.34.67.5,1.64.75,2.91.75.32,0,.67,0,1.04-.03.37-.02.73-.05,1.08-.09.35-.04.65-.08.89-.12v-4.49h-2.44v-3.16h6.39v10.64c-.44.06-.98.14-1.6.23-.62.09-1.27.18-1.94.26-.67.08-1.33.15-1.96.21-.63.06-1.19.09-1.67.09Z"/>
  </g>
</svg>